<?xml version="1.0" encoding="UTF-8"?>
<svg id="Layer_1" data-name="Layer 1" xmlns="http://www.w3.org/2000/svg" viewBox="0 0 707 669.65">
  <defs>
    <style>
      .cls-1 {
        fill: #ec0000;
      }
    </style>
  </defs>
  <path class="cls-1" d="M649.45,0H57.55C25.78,.04,.04,25.78,0,57.55V497.69c.04,31.77,25.78,57.51,57.55,57.55h86c4.54,0,8.21,3.68,8.22,8.22v48.57c-.1,31.72,25.53,57.52,57.25,57.63,9.65,.03,19.16-2.37,27.64-6.98l197.17-106.45c1.19-.65,2.52-.98,3.87-.98h211.75c31.77-.04,57.51-25.78,57.55-57.55V219.72c0-13.62-11.04-24.66-24.66-24.66s-24.66,11.04-24.66,24.66V497.69c0,4.54-3.68,8.21-8.22,8.22h-211.75c-9.55,0-18.94,2.38-27.34,6.91l-197.14,106.45c-2.53,1.45-5.65,1.38-8.11-.18-2.52-1.45-4.06-4.15-4.01-7.06v-48.57c-.04-31.77-25.78-57.51-57.55-57.55H57.55c-4.54,0-8.21-3.68-8.22-8.22V57.55c0-4.54,3.68-8.21,8.22-8.22H649.45c4.54,0,8.21,3.68,8.22,8.22v79.96c0,13.62,11.04,24.66,24.66,24.66s24.66-11.04,24.66-24.66V57.55c-.04-31.77-25.78-57.51-57.55-57.55Z"/>
  <path class="cls-1" d="M353.5,437.57h32.88c13.62,0,24.66-11.04,24.66-24.66s-11.04-24.66-24.66-24.66h-8.22v-106.87c0-13.62-11.04-24.66-24.66-24.66h-32.88c-13.62,0-24.66,11.04-24.66,24.66s11.04,24.66,24.66,24.66h8.22v106.87c0,13.62,11.04,24.66,24.66,24.66Z"/>
  <circle class="cls-1" cx="353.5" cy="166.28" r="41.1"/>
</svg>