<?xml version="1.0" encoding="UTF-8"?>
<svg id="Layer_1" data-name="Layer 1" xmlns="http://www.w3.org/2000/svg" viewBox="0 0 687.12 687.12">
  <path d="M400.95,503.39c17.35-15.68,28.31-38.28,28.31-63.46,0-47.24-38.45-85.69-85.69-85.69s-85.69,38.45-85.69,85.69c0,25.17,10.96,47.75,28.28,63.46-40.85,20.94-68.94,63.32-68.94,112.02-.06,2.85-.06,28.59,19.86,48.99,14.75,15.09,35.77,22.72,62.5,22.72h87.95c26.73,0,47.75-7.66,62.5-22.72,19.95-20.4,19.95-46.11,19.86-48.57,.03-49.02-28.06-91.48-68.94-112.45h0Zm-106.91-63.45c0-27.32,22.21-49.53,49.53-49.53s49.53,22.21,49.53,49.53-22.21,49.56-49.53,49.56-49.53-22.24-49.53-49.56Zm93.49,211.02h-87.92c-42.8,0-46.19-26.73-46.22-35.12,0-49.73,40.46-90.19,90.19-90.19s90.19,40.46,90.19,90.38c-.03,8.19-3.42,34.92-46.22,34.92h0Z"/>
  <path d="M232.82,310.14c19.95-20.4,19.95-46.14,19.89-48.57,0-48.99-28.08-91.48-68.97-112.42,17.32-15.68,28.31-38.28,28.31-63.46C212.05,38.46,173.6,0,126.36,0S40.66,38.45,40.66,85.7c0,25.17,10.96,47.75,28.28,63.46C28.09,170.06,0,212.47,0,261.17c-.06,2.85-.06,28.59,19.86,48.99,14.75,15.09,35.77,22.72,62.5,22.72h87.95c26.76,0,47.78-7.66,62.5-22.74h0ZM76.83,85.7c0-27.32,22.21-49.53,49.53-49.53s49.53,22.21,49.53,49.53-22.21,49.53-49.53,49.53-49.53-22.21-49.53-49.53Zm-40.66,175.87c0-49.73,40.46-90.19,90.19-90.19s90.19,40.46,90.19,90.38c-.03,8.19-3.42,34.95-46.22,34.95H82.38c-42.78,0-46.17-26.76-46.19-35.15h0Z"/>
  <path d="M687.12,261.57c0-48.99-28.08-91.48-68.97-112.42,17.32-15.68,28.31-38.28,28.31-63.46,0-47.24-38.45-85.69-85.69-85.69s-85.69,38.45-85.69,85.69c0,25.17,10.96,47.75,28.28,63.46-40.85,20.94-68.97,63.32-68.94,112.02-.06,2.85-.06,28.59,19.86,48.99,14.75,15.09,35.77,22.72,62.5,22.72h87.95c26.73,0,47.75-7.66,62.5-22.72,19.95-20.4,19.95-46.14,19.89-48.6h0ZM511.25,85.7c0-27.32,22.21-49.53,49.53-49.53s49.53,22.21,49.53,49.53-22.21,49.53-49.53,49.53-49.53-22.21-49.53-49.53Zm130.13,199.18c-7.68,7.85-20,11.84-36.64,11.84h-87.95c-42.8,0-46.19-26.73-46.22-35.12,0-49.73,40.46-90.19,90.19-90.19s90.19,40.46,90.19,90.61c.03,.08-.11,13.19-9.55,22.86h0Z"/>
  <path d="M133,368.96l-35.91,4.29c7.88,65.97,42.78,127.05,95.81,167.6l21.95-28.73c-45.29-34.64-75.13-86.82-81.85-143.16h0Z"/>
  <path d="M343.57,131.5c34.36,0,68.49,8.39,98.66,24.3l16.84-32.01c-35.34-18.62-75.29-28.45-115.5-28.45s-79.71,9.72-114.91,28.14l16.75,32.04c30.06-15.71,63.99-24.02,98.15-24.02h0Z"/>
  <path d="M471.55,512.69l21.84,28.82c53.43-40.49,88.63-101.71,96.59-167.94l-35.91-4.32c-6.81,56.53-36.9,108.83-82.53,143.44h0Z"/>
</svg>