<?xml version="1.0" encoding="UTF-8"?>
<svg id="Layer_1" data-name="Layer 1" xmlns="http://www.w3.org/2000/svg" viewBox="0 0 100.21 33">
  <path d="M.41,28.59l4.29-2.1c.79,1.3,2.16,1.95,4.11,1.95,.91,0,1.75-.29,2.53-.87,.78-.58,1.17-1.47,1.17-2.68v-1.13c-.93,1.03-2.59,1.54-4.98,1.54-2.19,0-3.99-.77-5.41-2.32-1.42-1.55-2.13-3.45-2.13-5.7s.71-4.15,2.13-5.71c1.42-1.56,3.23-2.34,5.41-2.34,1.95,0,3.58,.6,4.89,1.81h.09v-1.36h5.24v15.6c0,2.47-.82,4.37-2.46,5.71-1.64,1.34-3.8,2.01-6.48,2.01-4.34,0-7.15-1.47-8.41-4.41ZM6.58,14.71c-.68,.67-1.02,1.53-1.02,2.58s.33,1.9,.98,2.56c.65,.66,1.51,.99,2.58,.99s1.87-.33,2.53-1c.66-.67,.99-1.52,.99-2.55s-.34-1.9-1.02-2.58c-.68-.67-1.51-1-2.5-1s-1.85,.34-2.53,1Z"/>
  <path d="M18.53,24.86V9.68h5.24v2.19h.06c.04-.08,.1-.17,.19-.29,.09-.12,.28-.33,.58-.62,.3-.3,.61-.56,.95-.8,.34-.24,.77-.45,1.31-.63,.53-.19,1.07-.29,1.63-.29s1.13,.08,1.69,.24c.55,.16,.96,.32,1.21,.48l.42,.23-2.19,4.44c-.65-.55-1.56-.83-2.72-.83-.63,0-1.18,.14-1.63,.42-.45,.27-.77,.61-.96,1-.19,.4-.32,.73-.4,1.01-.08,.27-.12,.49-.12,.65v7.99h-5.24Z"/>
  <path d="M31.92,23.06c-1.69-1.5-2.53-3.43-2.53-5.77s.88-4.28,2.63-5.78c1.76-1.51,3.93-2.27,6.51-2.27s4.69,.76,6.44,2.28c1.75,1.52,2.62,3.44,2.62,5.77s-.86,4.25-2.56,5.76c-1.71,1.51-3.87,2.26-6.49,2.26s-4.93-.75-6.62-2.25Zm4.06-8.35c-.68,.67-1.02,1.53-1.02,2.58s.33,1.9,.98,2.56c.65,.66,1.51,.99,2.58,.99s1.87-.33,2.53-1c.66-.67,.99-1.52,.99-2.55s-.34-1.9-1.02-2.58c-.68-.67-1.51-1-2.5-1s-1.85,.34-2.53,1Z"/>
  <path d="M52.21,9.68v7.22c0,1.5,.22,2.57,.68,3.2,.45,.63,1.22,.95,2.31,.95s1.86-.31,2.31-.95c.45-.63,.68-1.7,.68-3.2v-7.22h5.23v8.5c0,2.52-.66,4.35-1.97,5.46-1.31,1.11-3.4,1.67-6.26,1.67s-4.95-.56-6.26-1.67c-1.31-1.12-1.97-2.94-1.97-5.46V9.68h5.24Z"/>
  <path d="M79.53,11.56c1.42,1.55,2.13,3.45,2.13,5.69s-.71,4.15-2.13,5.72c-1.42,1.56-3.23,2.34-5.42,2.34-2.01,0-3.67-.63-4.97-1.89v9.14h-5.24V9.68h5.18v1.72h.06c1.3-1.44,2.96-2.16,4.97-2.16,2.19,0,4,.78,5.42,2.33Zm-4.46,8.28c.68-.67,1.02-1.53,1.02-2.58s-.33-1.9-.98-2.56c-.65-.66-1.51-.99-2.58-.99s-1.87,.34-2.53,1c-.66,.67-.99,1.52-.99,2.54s.34,1.91,1.02,2.58c.68,.67,1.52,1,2.5,1s1.85-.33,2.53-1Z"/>
  <path d="M90.3,4.71c-.79,0-1.54,.39-2.26,1.17-.72,.78-1.25,1.55-1.59,2.32l-.5,1.16-4.65-2.25c.06-.2,.16-.45,.3-.77,.14-.32,.46-.88,.98-1.7,.51-.82,1.08-1.54,1.7-2.16,.62-.62,1.47-1.19,2.54-1.7,1.07-.51,2.23-.77,3.48-.77,1.6,0,3,.2,4.19,.61,1.2,.4,2.12,.9,2.77,1.51,.65,.6,1.18,1.31,1.59,2.13,.4,.82,.66,1.56,.77,2.24,.11,.67,.16,1.37,.16,2.1,0,1.07-.3,2.19-.89,3.36-.59,1.17-1.3,2.22-2.14,3.14-.84,.92-1.68,1.76-2.53,2.52-.85,.76-1.57,1.35-2.16,1.76l-.89,.62h9.06v4.89h-19.03v-1.39c.33-.27,.79-.65,1.36-1.14,.57-.49,1.58-1.41,3.02-2.77,1.44-1.36,2.71-2.64,3.82-3.83,1.11-1.2,2.11-2.47,3.02-3.83,.91-1.36,1.36-2.47,1.36-3.32,0-.33-.04-.67-.11-1-.07-.33-.2-.74-.4-1.23-.2-.49-.55-.88-1.07-1.18-.51-.31-1.14-.46-1.89-.46Z"/>
</svg>